<?xml version="1.0" standalone="no"?>
<!DOCTYPE svg PUBLIC "-//W3C//DTD SVG 20010904//EN"
 "http://www.w3.org/TR/2001/REC-SVG-20010904/DTD/svg10.dtd">
<svg version="1.0" xmlns="http://www.w3.org/2000/svg"
 width="470.000000pt" height="318.000000pt" viewBox="0 0 470.000000 318.000000"
 preserveAspectRatio="xMidYMid meet">
<metadata>
Created by Alisher Ashimkhan
</metadata>
<g transform="translate(0.000000,318.000000) scale(0.100000,-0.100000)"
fill="#000000" stroke="none">
<path d="M2415 2356 c-49 -49 -59 -148 -19 -196 24 -28 32 -31 72 -28 40 3 50
8 69 37 25 38 31 116 12 154 -30 58 -93 74 -134 33z m74 3 c42 -15 65 -60 57
-112 -8 -49 -30 -93 -52 -101 -25 -10 -27 -2 -7 33 16 28 17 33 3 58 -27 49
-90 39 -90 -14 0 -13 -4 -22 -9 -19 -21 13 23 136 49 136 6 0 10 7 10 15 0 18
-1 18 39 4z"/>
<path d="M1944 2334 c-32 -33 -34 -40 -34 -104 0 -63 3 -72 31 -105 91 -103
219 36 168 183 -13 39 -48 62 -95 62 -29 0 -44 -7 -70 -36z m124 1 c80 -67 31
-231 -66 -223 -43 4 -71 38 -79 96 -7 56 2 85 38 121 37 38 68 39 107 6z"/>
<path d="M2340 2070 c0 -41 -5 -91 -10 -111 -9 -31 -16 -38 -43 -42 -17 -2
-37 -1 -42 4 -11 8 -52 92 -79 162 -8 20 -19 37 -25 37 -18 0 60 -176 98 -219
12 -13 21 -30 21 -37 0 -8 12 -21 26 -30 23 -16 26 -16 42 0 10 10 17 35 18
69 1 28 5 86 9 128 5 50 4 83 -3 95 -9 15 -11 3 -12 -56z"/>
<path d="M1754 2066 c-127 -47 -224 -119 -224 -167 0 -16 6 -32 14 -35 20 -8
10 -72 -15 -99 -47 -52 -31 -127 31 -153 22 -9 40 -21 40 -26 0 -4 26 -63 58
-130 72 -149 99 -176 178 -176 34 0 53 4 49 10 -3 6 -28 10 -55 10 -42 0 -52
4 -78 34 -29 33 -106 185 -118 232 -5 18 -2 24 9 24 22 0 31 18 17 35 -9 11
-9 15 -1 15 18 0 13 25 -9 45 -15 13 -24 15 -31 8 -8 -8 -5 -13 11 -18 20 -6
21 -7 3 -20 -17 -13 -17 -14 2 -29 20 -15 20 -15 -3 -16 -34 0 -89 26 -101 48
-13 25 -14 62 -1 82 8 13 13 13 39 -3 16 -9 38 -17 49 -17 11 0 22 -6 25 -12
2 -7 8 -10 12 -6 17 16 -5 38 -38 38 -47 0 -61 20 -50 67 8 36 10 37 83 55 41
10 117 39 168 65 104 52 84 55 170 -23 40 -37 37 -49 -28 -108 -48 -43 -108
-71 -203 -94 -39 -9 -63 -20 -58 -25 10 -10 113 16 187 48 28 13 73 43 99 69
27 25 49 45 50 43 2 -3 92 -227 100 -249 4 -11 0 -18 -14 -23 -24 -7 -28 -25
-6 -25 8 0 15 -4 15 -10 0 -5 -4 -10 -10 -10 -14 0 -12 -27 3 -33 9 -4 8 -8
-3 -16 -13 -10 -13 -12 0 -21 12 -8 9 -15 -20 -46 -34 -35 -143 -94 -175 -94
-8 0 -15 -5 -15 -11 0 -6 9 -9 19 -6 15 4 20 -2 25 -32 11 -65 42 -118 86
-147 54 -36 77 -25 72 32 -2 22 -5 56 -5 77 l-2 38 118 2 c116 2 118 2 124
-21 3 -13 -2 -46 -11 -74 -17 -53 -15 -68 10 -68 34 0 84 52 105 109 16 46 38
76 104 143 98 100 135 151 135 187 -1 21 -5 17 -26 -26 -16 -33 -57 -84 -114
-140 -72 -71 -93 -98 -110 -144 -19 -53 -74 -118 -88 -105 -3 3 3 26 12 50 15
39 15 48 3 79 l-15 34 -133 -5 c-74 -2 -138 -8 -143 -13 -8 -7 -1 -50 21 -136
4 -16 1 -23 -9 -23 -26 0 -78 71 -112 153 l-15 38 62 28 c62 28 127 83 127
108 0 8 12 13 28 13 59 0 247 78 267 111 10 15 -2 11 -52 -20 -56 -34 -163
-71 -207 -71 -30 0 -31 2 -32 45 -1 35 3 46 17 50 24 8 154 95 199 134 19 16
32 33 28 36 -4 4 -32 -15 -62 -41 -69 -62 -164 -120 -176 -108 -4 5 -36 76
-69 158 -60 149 -105 216 -152 231 -15 5 -16 11 -7 36 8 23 7 35 -6 54 -14 21
-24 25 -64 24 -26 0 -75 -10 -108 -23z m140 -2 c10 -4 16 -18 16 -35 0 -35
-47 -68 -160 -112 -109 -43 -173 -57 -188 -41 -19 21 -14 32 12 27 40 -8 154
33 227 83 66 44 88 64 73 64 -3 0 -28 -16 -55 -36 -66 -48 -175 -93 -224 -93
l-40 0 40 35 c82 73 241 130 299 108z"/>
<path d="M1340 940 c-28 -53 -23 -305 7 -335 28 -29 173 1 173 35 0 30 -24 41
-70 34 -45 -7 -60 3 -60 42 0 16 9 22 42 30 71 15 62 71 -9 59 -33 -6 -33 -6
-33 34 l0 40 59 7 c66 7 83 24 55 55 -14 15 -32 19 -85 19 -58 0 -70 -3 -79
-20z"/>
<path d="M1882 902 c-21 -14 -10 -47 16 -50 23 -4 23 -5 21 -123 -1 -65 0
-122 4 -125 3 -3 15 -3 26 1 20 6 21 14 21 120 0 124 0 125 65 125 33 0 34 -1
39 -52 4 -29 7 -80 9 -113 2 -48 5 -60 20 -63 15 -3 17 7 17 112 0 64 4 116 9
116 12 0 23 32 14 41 -12 11 -246 21 -261 11z"/>
<path d="M2185 848 c-3 -13 -4 -84 -3 -158 l3 -135 30 0 c27 0 30 3 30 32 0
29 4 33 41 42 22 6 48 19 58 30 39 43 28 157 -17 185 -12 8 -48 17 -79 21 -54
6 -58 5 -63 -17z"/>
<path d="M1554 845 c-3 -8 5 -29 19 -46 l25 -32 -31 -49 c-26 -41 -28 -51 -16
-59 23 -14 27 -11 56 34 l28 42 3 -42 c3 -35 7 -43 23 -43 16 0 19 7 19 41 0
37 2 40 16 28 8 -7 22 -25 30 -41 16 -30 21 -33 43 -19 12 8 9 18 -17 57 l-31
48 20 28 c11 15 24 30 29 33 13 8 0 35 -17 35 -8 0 -27 -15 -44 -32 l-29 -32
0 26 c0 25 -23 44 -41 32 -5 -3 -9 -15 -9 -26 0 -21 -1 -21 -28 5 -32 31 -40
33 -48 12z"/>
<path d="M2635 851 c-6 -6 -8 -46 -5 -93 4 -64 8 -83 20 -83 8 0 18 15 24 33
8 28 13 32 42 32 31 0 34 -3 34 -31 0 -26 3 -30 23 -27 21 3 22 7 22 88 0 81
-1 85 -22 88 -20 3 -23 -1 -23 -27 0 -29 -2 -31 -39 -31 -36 0 -40 3 -43 27
-3 29 -18 39 -33 24z"/>
<path d="M2407 843 c-4 -3 -7 -44 -7 -90 0 -108 11 -113 82 -41 l53 53 3 -42
c3 -35 7 -43 23 -43 17 0 19 8 19 85 0 101 -8 106 -74 45 -24 -22 -46 -40 -50
-40 -3 0 -6 18 -6 40 0 32 -4 40 -18 40 -10 0 -22 -3 -25 -7z"/>
<path d="M2887 839 c-24 -14 -47 -62 -47 -99 0 -44 39 -80 85 -80 43 0 95 25
95 45 0 23 -20 28 -40 10 -10 -9 -30 -15 -46 -13 -36 4 -44 28 -9 28 47 0 85
27 85 60 0 49 -72 78 -123 49z"/>
<path d="M3070 818 c-46 -76 -11 -168 63 -168 44 0 88 33 69 52 -10 10 -16 10
-32 0 -48 -30 -86 -4 -76 52 9 49 28 62 67 46 24 -10 33 -10 42 -1 19 20 -27
51 -74 51 -34 0 -42 -5 -59 -32z"/>
</g>
</svg>
